<svg width="151" height="281" viewBox="0 0 151 281" fill="none" xmlns="http://www.w3.org/2000/svg">
<path d="M140.133 251.135L146.373 252.984L140.381 273.206L133.864 271.275C131.903 270.693 130.344 269.791 129.188 268.568C128.031 267.351 127.303 265.879 127.006 264.151C126.707 262.43 126.868 260.523 127.488 258.43C128.112 256.323 129.025 254.621 130.226 253.323C131.425 252.031 132.863 251.19 134.54 250.799C136.215 250.414 138.079 250.526 140.133 251.135ZM143.281 254.43L139.647 253.354C137.975 252.858 136.494 252.77 135.203 253.09C133.913 253.409 132.821 254.084 131.928 255.116C131.036 256.147 130.345 257.486 129.858 259.132C129.374 260.764 129.224 262.249 129.408 263.585C129.59 264.928 130.118 266.072 130.99 267.018C131.861 267.971 133.086 268.681 134.666 269.149L138.576 270.308L143.281 254.43Z" fill="white"/>
<path d="M125.967 247.731L117.571 267.078L105.895 262.011L106.796 259.933L116.13 263.983L118.967 257.446L110.238 253.658L111.14 251.58L119.869 255.368L122.722 248.792L113.237 244.676L114.139 242.598L125.967 247.731Z" fill="white"/>
<path d="M109.091 241.337L98.2904 259.452L92.1694 255.803C90.7482 254.955 89.7395 254.006 89.1431 252.955C88.5374 251.906 88.2747 250.819 88.3552 249.692C88.4356 248.565 88.7941 247.467 89.4304 246.4C90.0668 245.333 90.8634 244.493 91.8201 243.88C92.7709 243.264 93.8522 242.966 95.0638 242.985C96.2719 243.009 97.5806 243.442 98.99 244.282L103.377 246.898L102.217 248.844L97.9005 246.271C96.9275 245.69 96.046 245.393 95.2559 245.377C94.4658 245.362 93.7675 245.561 93.1611 245.975C92.5453 246.391 92.0212 246.962 91.5887 247.687C91.1563 248.412 90.9051 249.142 90.8354 249.875C90.7597 250.606 90.923 251.311 91.3252 251.99C91.7239 252.675 92.4156 253.312 93.4004 253.899L97.257 256.198L106.898 240.029L109.091 241.337Z" fill="white"/>
<path d="M92.2455 232.22L79.2088 248.799L69.203 240.931L70.6034 239.15L78.6016 245.439L83.0066 239.837L75.5265 233.955L76.9269 232.174L84.407 238.056L88.8374 232.422L80.7097 226.031L82.1101 224.25L92.2455 232.22Z" fill="white"/>
<path d="M72.8648 217.243L77.3297 221.978L61.9839 236.447L57.3212 231.501C55.9177 230.013 55.024 228.449 54.6399 226.811C54.2509 225.177 54.3622 223.539 54.974 221.896C55.5807 220.258 56.6783 218.69 58.2669 217.192C59.8654 215.685 61.5101 214.672 63.2009 214.154C64.8868 213.64 66.5528 213.635 68.1989 214.14C69.8401 214.65 71.3954 215.684 72.8648 217.243ZM73.9292 221.674L71.3294 218.917C70.1331 217.648 68.8969 216.827 67.6208 216.455C66.3448 216.082 65.0616 216.117 63.7712 216.56C62.4808 217.003 61.2112 217.813 59.9624 218.99C58.7235 220.158 57.8478 221.366 57.3351 222.614C56.8174 223.866 56.6979 225.121 56.9766 226.377C57.2504 227.638 57.9524 228.868 59.0827 230.067L61.8803 233.034L73.9292 221.674Z" fill="white"/>
<path d="M35.437 194.078L36.7327 196.279C36.1762 196.782 35.7542 197.337 35.4665 197.945C35.1753 198.546 35.0029 199.174 34.9492 199.827C34.886 200.477 34.9353 201.13 35.0971 201.783C35.2588 202.437 35.5173 203.065 35.8725 203.669C36.5204 204.769 37.3853 205.603 38.4674 206.169C39.546 206.729 40.7816 206.953 42.1743 206.843C43.5635 206.726 45.045 206.204 46.6188 205.278C48.1926 204.351 49.3676 203.309 50.1438 202.151C50.9165 200.987 51.3198 199.798 51.3535 198.583C51.3837 197.362 51.0749 196.201 50.4271 195.101C50.0718 194.497 49.6477 193.966 49.1546 193.508C48.6616 193.049 48.1182 192.688 47.5246 192.424C46.9216 192.157 46.2865 192.005 45.6192 191.968C44.9425 191.928 44.2522 192.028 43.5485 192.267L42.2528 190.066C43.2792 189.685 44.2881 189.497 45.2795 189.503C46.2709 189.509 47.2155 189.686 48.1133 190.034C49.0053 190.385 49.823 190.888 50.5664 191.541C51.3063 192.189 51.9462 192.972 52.486 193.889C53.3985 195.439 53.8314 197.04 53.7846 198.693C53.7378 200.346 53.22 201.93 52.2312 203.444C51.2425 204.958 49.7896 206.279 47.8727 207.408C45.9557 208.536 44.0954 209.165 42.2916 209.295C40.4878 209.425 38.852 209.109 37.3841 208.348C35.9163 207.587 34.7261 206.431 33.8136 204.881C33.2738 203.964 32.9001 203.025 32.6927 202.063C32.4818 201.096 32.4421 200.136 32.5737 199.182C32.6994 198.231 33.0002 197.321 33.4761 196.452C33.9461 195.585 34.5997 194.794 35.437 194.078Z" fill="white"/>
<path d="M43.986 182.017L44.9715 184.507L22.5108 185.069L21.5404 182.618L38.3002 167.654L39.2857 170.144L25.0977 182.539L25.1583 182.692L43.986 182.017ZM35.9618 184.13L31.9894 174.095L34.0959 173.261L38.0684 183.296L35.9618 184.13Z" fill="white"/>
<path d="M36.2656 164.665L15.8061 169.787L15.1859 167.309L33.4475 162.737L31.0665 153.227L33.2643 152.677L36.2656 164.665Z" fill="white"/>
<path d="M30.9017 147.485L31.1327 150.152L9.45216 144.257L9.22463 141.631L29.5685 132.095L29.7996 134.762L12.6555 142.574L12.6697 142.738L30.9017 147.485ZM22.6084 147.211L21.677 136.458L23.9342 136.263L24.8656 147.015L22.6084 147.211Z" fill="white"/>
<path d="M28.1904 128.042L7.14522 126.654L7.63054 119.297C7.72724 117.831 8.06047 116.638 8.63023 115.719C9.19314 114.8 9.91469 114.136 10.7949 113.726C11.6683 113.316 12.6187 113.144 13.6463 113.212C14.5506 113.272 15.2867 113.482 15.8546 113.843C16.423 114.197 16.8613 114.645 17.1695 115.189C17.4781 115.725 17.6948 116.3 17.8194 116.914L18.0249 116.927C18.1085 116.286 18.3773 115.654 18.8312 115.03C19.2852 114.406 19.9103 113.9 20.7065 113.513C21.5027 113.125 22.4557 112.967 23.5655 113.041C24.6205 113.11 25.5535 113.413 26.3645 113.948C27.1755 114.483 27.7935 115.284 28.2185 116.351C28.6435 117.418 28.8013 118.78 28.692 120.438L28.1904 128.042ZM26.0978 125.345L26.4313 120.289C26.5411 118.624 26.297 117.421 25.6992 116.68C25.0949 115.932 24.3304 115.527 23.4055 115.466C22.6931 115.419 22.0234 115.557 21.3966 115.88C20.763 116.203 20.2424 116.688 19.8351 117.336C19.4209 117.983 19.1835 118.765 19.1229 119.683L18.7813 124.862L26.0978 125.345ZM16.5617 124.716L16.8735 119.989C16.9241 119.222 16.819 118.52 16.5583 117.883C16.298 117.24 15.9057 116.719 15.3816 116.32C14.858 115.913 14.2262 115.686 13.4864 115.637C12.5615 115.576 11.7559 115.846 11.0695 116.448C10.3762 117.049 9.98343 118.048 9.89125 119.446L9.57403 124.255L16.5617 124.716Z" fill="white"/>
<path d="M28.465 107.982L27.8673 110.592L9.03725 98.3347L9.62574 95.7648L31.9132 92.9239L31.3155 95.5339L12.6023 97.7143L12.5656 97.8749L28.465 107.982ZM20.6549 105.179L23.0641 94.6585L25.2725 95.1643L22.8633 105.685L20.6549 105.179Z" fill="white"/>
<path d="M31.8187 88.7184L12.2084 80.9555L14.8314 74.3293C15.4379 72.7973 16.1975 71.6433 17.1101 70.8675C18.0163 70.0891 19.0161 69.6431 20.1096 69.5296C21.2031 69.416 22.3275 69.588 23.4829 70.0453C24.6384 70.5027 25.5694 71.1445 26.2761 71.9707C26.9828 72.7968 27.3982 73.7993 27.5222 74.9782C27.6399 76.1545 27.398 77.5023 26.7966 79.0216L24.6739 84.3838L22.529 83.5347L24.6214 78.2491C25.0358 77.2022 25.2162 76.2989 25.1625 75.5393C25.1113 74.7733 24.8617 74.1354 24.4137 73.6258C23.9618 73.1072 23.3432 72.6925 22.558 72.3817C21.7729 72.0709 21.0285 71.9461 20.325 72.0072C19.6215 72.0684 18.9825 72.3582 18.4081 72.8766C17.8273 73.3924 17.3272 74.1802 16.9077 75.2399L15.255 79.4147L32.7587 86.3437L31.8187 88.7184ZM26.6634 76.0005L37.3831 74.6618L36.2915 77.4195L25.6021 78.6816L26.6634 76.0005Z" fill="white"/>
<path d="M37.2929 71.7597L35.6848 70.8376L26.6166 52.5329L20.9 62.5033L18.9346 61.3763L26.1673 48.7615L27.7754 49.6835L36.8436 67.9883L42.5601 58.0179L44.5256 59.1448L37.2929 71.7597Z" fill="white"/>
<path d="M49.1486 33.2213C50.8593 34.6432 52.0809 36.1809 52.8135 37.8343C53.5461 39.4878 53.8026 41.1339 53.5832 42.7727C53.3637 44.4115 52.6791 45.9226 51.5293 47.3059C50.3795 48.6892 49.0191 49.6385 47.448 50.1538C45.8769 50.6692 44.2116 50.7179 42.4521 50.2999C40.6927 49.882 38.9576 48.962 37.2469 47.5401C35.5363 46.1183 34.3147 44.5806 33.5821 42.9272C32.8495 41.2737 32.593 39.6276 32.8124 37.9888C33.0319 36.35 33.7165 34.8389 34.8663 33.4556C36.0161 32.0723 37.3765 31.123 38.9476 30.6077C40.5187 30.0923 42.1839 30.0436 43.9434 30.4616C45.7029 30.8795 47.438 31.7995 49.1486 33.2213ZM47.5688 35.1221C46.1643 33.9547 44.7837 33.2044 43.427 32.8712C42.0746 32.5328 40.8189 32.5559 39.6599 32.9406C38.5053 33.3201 37.5199 34.0008 36.7036 34.9828C35.8874 35.9649 35.3961 37.0608 35.2297 38.2706C35.0677 39.4751 35.2745 40.7138 35.8501 41.9868C36.4302 43.2545 37.4224 44.4721 38.8268 45.6394C40.2312 46.8068 41.6096 47.5597 42.962 47.8982C44.3188 48.2314 45.5745 48.2082 46.7291 47.8288C47.888 47.4441 48.8757 46.7607 49.6919 45.7786C50.5082 44.7966 50.9973 43.7033 51.1593 42.4988C51.3257 41.2891 51.1189 40.0503 50.5388 38.7826C49.9632 37.5096 48.9732 36.2894 47.5688 35.1221Z" fill="white"/>
<path d="M58.647 7.81255L72.5024 23.714L70.6389 25.3377L51.0953 20.4026L50.94 20.5379L61.8186 33.0231L59.893 34.7009L46.0377 18.7994L47.9011 17.1757L67.5029 22.1148L67.6582 21.9795L56.7525 9.46329L58.647 7.81255Z" fill="white"/>
</svg>
